solid Membrane
  facet normal 0 -0 1
    outer loop
      vertex -0.05 -0.05 -0.004
      vertex -0.04192 -0.05 -0.004
      vertex -0.04596 -0.0430025 -0.004
    endloop
  endfacet
  facet normal 0 0 1
    outer loop
      vertex -0.04192 -0.036005 -0.004
      vertex -0.05 -0.036005 -0.004
      vertex -0.04596 -0.0430025 -0.004
    endloop
  endfacet
  facet normal 0 -0 1
    outer loop
      vertex -0.04192 -0.05 -0.004
      vertex -0.03788 -0.0430025 -0.004
      vertex -0.04596 -0.0430025 -0.004
    endloop
  endfacet
  facet normal -0 0 1
    outer loop
      vertex -0.04192 -0.036005 -0.004
      vertex -0.04596 -0.0430025 -0.004
      vertex -0.03788 -0.0430025 -0.004
    endloop
  endfacet
  facet normal 0 -0 1
    outer loop
      vertex -0.04192 -0.05 -0.004
      vertex -0.03384 -0.05 -0.004
      vertex -0.03788 -0.0430025 -0.004
    endloop
  endfacet
  facet normal 0 0 1
    outer loop
      vertex -0.03384 -0.036005 -0.004
      vertex -0.04192 -0.036005 -0.004
      vertex -0.03788 -0.0430025 -0.004
    endloop
  endfacet
  facet normal 0 -0 1
    outer loop
      vertex -0.03384 -0.05 -0.004
      vertex -0.0298 -0.0430025 -0.004
      vertex -0.03788 -0.0430025 -0.004
    endloop
  endfacet
  facet normal -0 0 1
    outer loop
      vertex -0.03384 -0.036005 -0.004
      vertex -0.03788 -0.0430025 -0.004
      vertex -0.0298 -0.0430025 -0.004
    endloop
  endfacet
  facet normal 0 -0 1
    outer loop
      vertex -0.03384 -0.05 -0.004
      vertex -0.02576 -0.05 -0.004
      vertex -0.0298 -0.0430025 -0.004
    endloop
  endfacet
  facet normal 0 0 1
    outer loop
      vertex -0.02576 -0.036005 -0.004
      vertex -0.03384 -0.036005 -0.004
      vertex -0.0298 -0.0430025 -0.004
    endloop
  endfacet
  facet normal 0 -0 1
    outer loop
      vertex -0.02576 -0.05 -0.004
      vertex -0.02172 -0.0430025 -0.004
      vertex -0.0298 -0.0430025 -0.004
    endloop
  endfacet
  facet normal -0 0 1
    outer loop
      vertex -0.02576 -0.036005 -0.004
      vertex -0.0298 -0.0430025 -0.004
      vertex -0.02172 -0.0430025 -0.004
    endloop
  endfacet
  facet normal 0 -0 1
    outer loop
      vertex -0.02576 -0.05 -0.004
      vertex -0.01768 -0.05 -0.004
      vertex -0.02172 -0.0430025 -0.004
    endloop
  endfacet
  facet normal 0 0 1
    outer loop
      vertex -0.01768 -0.036005 -0.004
      vertex -0.02576 -0.036005 -0.004
      vertex -0.02172 -0.0430025 -0.004
    endloop
  endfacet
  facet normal 0 -0 1
    outer loop
      vertex -0.01768 -0.05 -0.004
      vertex -0.01364 -0.0430025 -0.004
      vertex -0.02172 -0.0430025 -0.004
    endloop
  endfacet
  facet normal -0 0 1
    outer loop
      vertex -0.01768 -0.036005 -0.004
      vertex -0.02172 -0.0430025 -0.004
      vertex -0.01364 -0.0430025 -0.004
    endloop
  endfacet
  facet normal 0 -0 1
    outer loop
      vertex -0.01768 -0.05 -0.004
      vertex -0.0096 -0.05 -0.004
      vertex -0.01364 -0.0430025 -0.004
    endloop
  endfacet
  facet normal 0 0 1
    outer loop
      vertex -0.0096 -0.036005 -0.004
      vertex -0.01768 -0.036005 -0.004
      vertex -0.01364 -0.0430025 -0.004
    endloop
  endfacet
  facet normal 0 -0 1
    outer loop
      vertex -0.0096 -0.05 -0.004
      vertex -0.00556 -0.0430025 -0.004
      vertex -0.01364 -0.0430025 -0.004
    endloop
  endfacet
  facet normal -0 0 1
    outer loop
      vertex -0.0096 -0.036005 -0.004
      vertex -0.01364 -0.0430025 -0.004
      vertex -0.00556 -0.0430025 -0.004
    endloop
  endfacet
  facet normal 0 -0 1
    outer loop
      vertex -0.0096 -0.05 -0.004
      vertex -0.00152 -0.05 -0.004
      vertex -0.00556 -0.0430025 -0.004
    endloop
  endfacet
  facet normal 0 0 1
    outer loop
      vertex -0.00152 -0.036005 -0.004
      vertex -0.0096 -0.036005 -0.004
      vertex -0.00556 -0.0430025 -0.004
    endloop
  endfacet
  facet normal 0 -0 1
    outer loop
      vertex -0.00152 -0.05 -0.004
      vertex 0.00252 -0.0430025 -0.004
      vertex -0.00556 -0.0430025 -0.004
    endloop
  endfacet
  facet normal -0 0 1
    outer loop
      vertex -0.00152 -0.036005 -0.004
      vertex -0.00556 -0.0430025 -0.004
      vertex 0.00252 -0.0430025 -0.004
    endloop
  endfacet
  facet normal 0 -0 1
    outer loop
      vertex -0.00152 -0.05 -0.004
      vertex 0.00656 -0.05 -0.004
      vertex 0.00252 -0.0430025 -0.004
    endloop
  endfacet
  facet normal 0 0 1
    outer loop
      vertex 0.00656 -0.036005 -0.004
      vertex -0.00152 -0.036005 -0.004
      vertex 0.00252 -0.0430025 -0.004
    endloop
  endfacet
  facet normal 0 -0 1
    outer loop
      vertex 0.00656 -0.05 -0.004
      vertex 0.0106 -0.0430025 -0.004
      vertex 0.00252 -0.0430025 -0.004
    endloop
  endfacet
  facet normal -0 0 1
    outer loop
      vertex 0.00656 -0.036005 -0.004
      vertex 0.00252 -0.0430025 -0.004
      vertex 0.0106 -0.0430025 -0.004
    endloop
  endfacet
  facet normal 0 -0 1
    outer loop
      vertex 0.00656 -0.05 -0.004
      vertex 0.01464 -0.05 -0.004
      vertex 0.0106 -0.0430025 -0.004
    endloop
  endfacet
  facet normal 0 0 1
    outer loop
      vertex 0.01464 -0.036005 -0.004
      vertex 0.00656 -0.036005 -0.004
      vertex 0.0106 -0.0430025 -0.004
    endloop
  endfacet
  facet normal 0 -0 1
    outer loop
      vertex 0.01464 -0.05 -0.004
      vertex 0.01868 -0.0430025 -0.004
      vertex 0.0106 -0.0430025 -0.004
    endloop
  endfacet
  facet normal -0 0 1
    outer loop
      vertex 0.01464 -0.036005 -0.004
      vertex 0.0106 -0.0430025 -0.004
      vertex 0.01868 -0.0430025 -0.004
    endloop
  endfacet
  facet normal 0 -0 1
    outer loop
      vertex 0.01464 -0.05 -0.004
      vertex 0.02272 -0.05 -0.004
      vertex 0.01868 -0.0430025 -0.004
    endloop
  endfacet
  facet normal 0 0 1
    outer loop
      vertex 0.02272 -0.036005 -0.004
      vertex 0.01464 -0.036005 -0.004
      vertex 0.01868 -0.0430025 -0.004
    endloop
  endfacet
  facet normal 0 -0 1
    outer loop
      vertex 0.02272 -0.05 -0.004
      vertex 0.02676 -0.0430025 -0.004
      vertex 0.01868 -0.0430025 -0.004
    endloop
  endfacet
  facet normal -0 0 1
    outer loop
      vertex 0.02272 -0.036005 -0.004
      vertex 0.01868 -0.0430025 -0.004
      vertex 0.02676 -0.0430025 -0.004
    endloop
  endfacet
  facet normal 0 -0 1
    outer loop
      vertex 0.02272 -0.05 -0.004
      vertex 0.0308 -0.05 -0.004
      vertex 0.02676 -0.0430025 -0.004
    endloop
  endfacet
  facet normal 0 0 1
    outer loop
      vertex 0.0308 -0.036005 -0.004
      vertex 0.02272 -0.036005 -0.004
      vertex 0.02676 -0.0430025 -0.004
    endloop
  endfacet
  facet normal 0 -0 1
    outer loop
      vertex 0.0308 -0.05 -0.004
      vertex 0.03484 -0.0430025 -0.004
      vertex 0.02676 -0.0430025 -0.004
    endloop
  endfacet
  facet normal -0 0 1
    outer loop
      vertex 0.0308 -0.036005 -0.004
      vertex 0.02676 -0.0430025 -0.004
      vertex 0.03484 -0.0430025 -0.004
    endloop
  endfacet
  facet normal 0 -0 1
    outer loop
      vertex 0.0308 -0.05 -0.004
      vertex 0.03888 -0.05 -0.004
      vertex 0.03484 -0.0430025 -0.004
    endloop
  endfacet
  facet normal 0 0 1
    outer loop
      vertex 0.03888 -0.036005 -0.004
      vertex 0.0308 -0.036005 -0.004
      vertex 0.03484 -0.0430025 -0.004
    endloop
  endfacet
  facet normal 0 -0 1
    outer loop
      vertex 0.03888 -0.05 -0.004
      vertex 0.04292 -0.0430025 -0.004
      vertex 0.03484 -0.0430025 -0.004
    endloop
  endfacet
  facet normal -0 0 1
    outer loop
      vertex 0.03888 -0.036005 -0.004
      vertex 0.03484 -0.0430025 -0.004
      vertex 0.04292 -0.0430025 -0.004
    endloop
  endfacet
  facet normal 0 -0 1
    outer loop
      vertex 0.03888 -0.05 -0.004
      vertex 0.04696 -0.05 -0.004
      vertex 0.04292 -0.0430025 -0.004
    endloop
  endfacet
  facet normal 0 0 1
    outer loop
      vertex 0.04696 -0.036005 -0.004
      vertex 0.03888 -0.036005 -0.004
      vertex 0.04292 -0.0430025 -0.004
    endloop
  endfacet
  facet normal 0 -0 1
    outer loop
      vertex 0.04696 -0.05 -0.004
      vertex 0.051 -0.0430025 -0.004
      vertex 0.04292 -0.0430025 -0.004
    endloop
  endfacet
  facet normal -0 0 1
    outer loop
      vertex 0.04696 -0.036005 -0.004
      vertex 0.04292 -0.0430025 -0.004
      vertex 0.051 -0.0430025 -0.004
    endloop
  endfacet
  facet normal 0 -0 1
    outer loop
      vertex 0.04696 -0.05 -0.004
      vertex 0.05504 -0.05 -0.004
      vertex 0.051 -0.0430025 -0.004
    endloop
  endfacet
  facet normal 0 0 1
    outer loop
      vertex 0.05504 -0.036005 -0.004
      vertex 0.04696 -0.036005 -0.004
      vertex 0.051 -0.0430025 -0.004
    endloop
  endfacet
  facet normal 0 -0 1
    outer loop
      vertex 0.05504 -0.05 -0.004
      vertex 0.05908 -0.0430025 -0.004
      vertex 0.051 -0.0430025 -0.004
    endloop
  endfacet
  facet normal -0 0 1
    outer loop
      vertex 0.05504 -0.036005 -0.004
      vertex 0.051 -0.0430025 -0.004
      vertex 0.05908 -0.0430025 -0.004
    endloop
  endfacet
  facet normal 0 -0 1
    outer loop
      vertex 0.05504 -0.05 -0.004
      vertex 0.06312 -0.05 -0.004
      vertex 0.05908 -0.0430025 -0.004
    endloop
  endfacet
  facet normal 0 0 1
    outer loop
      vertex 0.06312 -0.036005 -0.004
      vertex 0.05504 -0.036005 -0.004
      vertex 0.05908 -0.0430025 -0.004
    endloop
  endfacet
  facet normal 0 -0 1
    outer loop
      vertex 0.06312 -0.05 -0.004
      vertex 0.06716 -0.0430025 -0.004
      vertex 0.05908 -0.0430025 -0.004
    endloop
  endfacet
  facet normal -0 0 1
    outer loop
      vertex 0.06312 -0.036005 -0.004
      vertex 0.05908 -0.0430025 -0.004
      vertex 0.06716 -0.0430025 -0.004
    endloop
  endfacet
  facet normal 0 -0 1
    outer loop
      vertex -0.05 -0.036005 -0.004
      vertex -0.04192 -0.036005 -0.004
      vertex -0.04596 -0.0290075 -0.004
    endloop
  endfacet
  facet normal 0 0 1
    outer loop
      vertex -0.04192 -0.0220101 -0.004
      vertex -0.05 -0.0220101 -0.004
      vertex -0.04596 -0.0290075 -0.004
    endloop
  endfacet
  facet normal 0 -0 1
    outer loop
      vertex -0.04192 -0.036005 -0.004
      vertex -0.03788 -0.0290075 -0.004
      vertex -0.04596 -0.0290075 -0.004
    endloop
  endfacet
  facet normal -0 0 1
    outer loop
      vertex -0.04192 -0.0220101 -0.004
      vertex -0.04596 -0.0290075 -0.004
      vertex -0.03788 -0.0290075 -0.004
    endloop
  endfacet
  facet normal 0 -0 1
    outer loop
      vertex -0.04192 -0.036005 -0.004
      vertex -0.03384 -0.036005 -0.004
      vertex -0.03788 -0.0290075 -0.004
    endloop
  endfacet
  facet normal 0 0 1
    outer loop
      vertex -0.03384 -0.0220101 -0.004
      vertex -0.04192 -0.0220101 -0.004
      vertex -0.03788 -0.0290075 -0.004
    endloop
  endfacet
  facet normal 0 -0 1
    outer loop
      vertex -0.03384 -0.036005 -0.004
      vertex -0.0298 -0.0290075 -0.004
      vertex -0.03788 -0.0290075 -0.004
    endloop
  endfacet
  facet normal -0 0 1
    outer loop
      vertex -0.03384 -0.0220101 -0.004
      vertex -0.03788 -0.0290075 -0.004
      vertex -0.0298 -0.0290075 -0.004
    endloop
  endfacet
  facet normal 0 -0 1
    outer loop
      vertex -0.03384 -0.036005 -0.004
      vertex -0.02576 -0.036005 -0.004
      vertex -0.0298 -0.0290075 -0.004
    endloop
  endfacet
  facet normal 0 0 1
    outer loop
      vertex -0.02576 -0.0220101 -0.004
      vertex -0.03384 -0.0220101 -0.004
      vertex -0.0298 -0.0290075 -0.004
    endloop
  endfacet
  facet normal 0 -0 1
    outer loop
      vertex -0.02576 -0.036005 -0.004
      vertex -0.02172 -0.0290075 -0.004
      vertex -0.0298 -0.0290075 -0.004
    endloop
  endfacet
  facet normal -0 0 1
    outer loop
      vertex -0.02576 -0.0220101 -0.004
      vertex -0.0298 -0.0290075 -0.004
      vertex -0.02172 -0.0290075 -0.004
    endloop
  endfacet
  facet normal 0 -0 1
    outer loop
      vertex -0.02576 -0.036005 -0.004
      vertex -0.01768 -0.036005 -0.004
      vertex -0.02172 -0.0290075 -0.004
    endloop
  endfacet
  facet normal 0 0 1
    outer loop
      vertex -0.01768 -0.0220101 -0.004
      vertex -0.02576 -0.0220101 -0.004
      vertex -0.02172 -0.0290075 -0.004
    endloop
  endfacet
  facet normal 0 -0 1
    outer loop
      vertex -0.01768 -0.036005 -0.004
      vertex -0.01364 -0.0290075 -0.004
      vertex -0.02172 -0.0290075 -0.004
    endloop
  endfacet
  facet normal -0 0 1
    outer loop
      vertex -0.01768 -0.0220101 -0.004
      vertex -0.02172 -0.0290075 -0.004
      vertex -0.01364 -0.0290075 -0.004
    endloop
  endfacet
  facet normal 0 -0 1
    outer loop
      vertex -0.01768 -0.036005 -0.004
      vertex -0.0096 -0.036005 -0.004
      vertex -0.01364 -0.0290075 -0.004
    endloop
  endfacet
  facet normal 0 0 1
    outer loop
      vertex -0.0096 -0.0220101 -0.004
      vertex -0.01768 -0.0220101 -0.004
      vertex -0.01364 -0.0290075 -0.004
    endloop
  endfacet
  facet normal 0 -0 1
    outer loop
      vertex -0.0096 -0.036005 -0.004
      vertex -0.00556 -0.0290075 -0.004
      vertex -0.01364 -0.0290075 -0.004
    endloop
  endfacet
  facet normal -0 0 1
    outer loop
      vertex -0.0096 -0.0220101 -0.004
      vertex -0.01364 -0.0290075 -0.004
      vertex -0.00556 -0.0290075 -0.004
    endloop
  endfacet
  facet normal 0 -0 1
    outer loop
      vertex -0.0096 -0.036005 -0.004
      vertex -0.00152 -0.036005 -0.004
      vertex -0.00556 -0.0290075 -0.004
    endloop
  endfacet
  facet normal 0 0 1
    outer loop
      vertex -0.00152 -0.0220101 -0.004
      vertex -0.0096 -0.0220101 -0.004
      vertex -0.00556 -0.0290075 -0.004
    endloop
  endfacet
  facet normal 0 -0 1
    outer loop
      vertex -0.00152 -0.036005 -0.004
      vertex 0.00252 -0.0290075 -0.004
      vertex -0.00556 -0.0290075 -0.004
    endloop
  endfacet
  facet normal -0 0 1
    outer loop
      vertex -0.00152 -0.0220101 -0.004
      vertex -0.00556 -0.0290075 -0.004
      vertex 0.00252 -0.0290075 -0.004
    endloop
  endfacet
  facet normal 0 -0 1
    outer loop
      vertex -0.00152 -0.036005 -0.004
      vertex 0.00656 -0.036005 -0.004
      vertex 0.00252 -0.0290075 -0.004
    endloop
  endfacet
  facet normal 0 0 1
    outer loop
      vertex 0.00656 -0.0220101 -0.004
      vertex -0.00152 -0.0220101 -0.004
      vertex 0.00252 -0.0290075 -0.004
    endloop
  endfacet
  facet normal 0 -0 1
    outer loop
      vertex 0.00656 -0.036005 -0.004
      vertex 0.0106 -0.0290075 -0.004
      vertex 0.00252 -0.0290075 -0.004
    endloop
  endfacet
  facet normal -0 0 1
    outer loop
      vertex 0.00656 -0.0220101 -0.004
      vertex 0.00252 -0.0290075 -0.004
      vertex 0.0106 -0.0290075 -0.004
    endloop
  endfacet
  facet normal 0 -0 1
    outer loop
      vertex 0.00656 -0.036005 -0.004
      vertex 0.01464 -0.036005 -0.004
      vertex 0.0106 -0.0290075 -0.004
    endloop
  endfacet
  facet normal 0 0 1
    outer loop
      vertex 0.01464 -0.0220101 -0.004
      vertex 0.00656 -0.0220101 -0.004
      vertex 0.0106 -0.0290075 -0.004
    endloop
  endfacet
  facet normal 0 -0 1
    outer loop
      vertex 0.01464 -0.036005 -0.004
      vertex 0.01868 -0.0290075 -0.004
      vertex 0.0106 -0.0290075 -0.004
    endloop
  endfacet
  facet normal -0 0 1
    outer loop
      vertex 0.01464 -0.0220101 -0.004
      vertex 0.0106 -0.0290075 -0.004
      vertex 0.01868 -0.0290075 -0.004
    endloop
  endfacet
  facet normal 0 -0 1
    outer loop
      vertex 0.01464 -0.036005 -0.004
      vertex 0.02272 -0.036005 -0.004
      vertex 0.01868 -0.0290075 -0.004
    endloop
  endfacet
  facet normal 0 0 1
    outer loop
      vertex 0.02272 -0.0220101 -0.004
      vertex 0.01464 -0.0220101 -0.004
      vertex 0.01868 -0.0290075 -0.004
    endloop
  endfacet
  facet normal 0 -0 1
    outer loop
      vertex 0.02272 -0.036005 -0.004
      vertex 0.02676 -0.0290075 -0.004
      vertex 0.01868 -0.0290075 -0.004
    endloop
  endfacet
  facet normal -0 0 1
    outer loop
      vertex 0.02272 -0.0220101 -0.004
      vertex 0.01868 -0.0290075 -0.004
      vertex 0.02676 -0.0290075 -0.004
    endloop
  endfacet
  facet normal 0 -0 1
    outer loop
      vertex 0.02272 -0.036005 -0.004
      vertex 0.0308 -0.036005 -0.004
      vertex 0.02676 -0.0290075 -0.004
    endloop
  endfacet
  facet normal 0 0 1
    outer loop
      vertex 0.0308 -0.0220101 -0.004
      vertex 0.02272 -0.0220101 -0.004
      vertex 0.02676 -0.0290075 -0.004
    endloop
  endfacet
  facet normal 0 -0 1
    outer loop
      vertex 0.0308 -0.036005 -0.004
      vertex 0.03484 -0.0290075 -0.004
      vertex 0.02676 -0.0290075 -0.004
    endloop
  endfacet
  facet normal -0 0 1
    outer loop
      vertex 0.0308 -0.0220101 -0.004
      vertex 0.02676 -0.0290075 -0.004
      vertex 0.03484 -0.0290075 -0.004
    endloop
  endfacet
  facet normal 0 -0 1
    outer loop
      vertex 0.0308 -0.036005 -0.004
      vertex 0.03888 -0.036005 -0.004
      vertex 0.03484 -0.0290075 -0.004
    endloop
  endfacet
  facet normal 0 0 1
    outer loop
      vertex 0.03888 -0.0220101 -0.004
      vertex 0.0308 -0.0220101 -0.004
      vertex 0.03484 -0.0290075 -0.004
    endloop
  endfacet
  facet normal 0 -0 1
    outer loop
      vertex 0.03888 -0.036005 -0.004
      vertex 0.04292 -0.0290075 -0.004
      vertex 0.03484 -0.0290075 -0.004
    endloop
  endfacet
  facet normal -0 0 1
    outer loop
      vertex 0.03888 -0.0220101 -0.004
      vertex 0.03484 -0.0290075 -0.004
      vertex 0.04292 -0.0290075 -0.004
    endloop
  endfacet
  facet normal 0 -0 1
    outer loop
      vertex 0.03888 -0.036005 -0.004
      vertex 0.04696 -0.036005 -0.004
      vertex 0.04292 -0.0290075 -0.004
    endloop
  endfacet
  facet normal 0 0 1
    outer loop
      vertex 0.04696 -0.0220101 -0.004
      vertex 0.03888 -0.0220101 -0.004
      vertex 0.04292 -0.0290075 -0.004
    endloop
  endfacet
  facet normal 0 -0 1
    outer loop
      vertex 0.04696 -0.036005 -0.004
      vertex 0.051 -0.0290075 -0.004
      vertex 0.04292 -0.0290075 -0.004
    endloop
  endfacet
  facet normal -0 0 1
    outer loop
      vertex 0.04696 -0.0220101 -0.004
      vertex 0.04292 -0.0290075 -0.004
      vertex 0.051 -0.0290075 -0.004
    endloop
  endfacet
  facet normal 0 -0 1
    outer loop
      vertex 0.04696 -0.036005 -0.004
      vertex 0.05504 -0.036005 -0.004
      vertex 0.051 -0.0290075 -0.004
    endloop
  endfacet
  facet normal 0 0 1
    outer loop
      vertex 0.05504 -0.0220101 -0.004
      vertex 0.04696 -0.0220101 -0.004
      vertex 0.051 -0.0290075 -0.004
    endloop
  endfacet
  facet normal 0 -0 1
    outer loop
      vertex 0.05504 -0.036005 -0.004
      vertex 0.05908 -0.0290075 -0.004
      vertex 0.051 -0.0290075 -0.004
    endloop
  endfacet
  facet normal -0 0 1
    outer loop
      vertex 0.05504 -0.0220101 -0.004
      vertex 0.051 -0.0290075 -0.004
      vertex 0.05908 -0.0290075 -0.004
    endloop
  endfacet
  facet normal 0 -0 1
    outer loop
      vertex 0.05504 -0.036005 -0.004
      vertex 0.06312 -0.036005 -0.004
      vertex 0.05908 -0.0290075 -0.004
    endloop
  endfacet
  facet normal 0 0 1
    outer loop
      vertex 0.06312 -0.0220101 -0.004
      vertex 0.05504 -0.0220101 -0.004
      vertex 0.05908 -0.0290075 -0.004
    endloop
  endfacet
  facet normal 0 -0 1
    outer loop
      vertex 0.06312 -0.036005 -0.004
      vertex 0.06716 -0.0290075 -0.004
      vertex 0.05908 -0.0290075 -0.004
    endloop
  endfacet
  facet normal -0 0 1
    outer loop
      vertex 0.06312 -0.0220101 -0.004
      vertex 0.05908 -0.0290075 -0.004
      vertex 0.06716 -0.0290075 -0.004
    endloop
  endfacet
  facet normal 0 -0 1
    outer loop
      vertex -0.05 -0.0220101 -0.004
      vertex -0.04192 -0.0220101 -0.004
      vertex -0.04596 -0.0150126 -0.004
    endloop
  endfacet
  facet normal 0 0 1
    outer loop
      vertex -0.04192 -0.00801509 -0.004
      vertex -0.05 -0.00801509 -0.004
      vertex -0.04596 -0.0150126 -0.004
    endloop
  endfacet
  facet normal 0 -0 1
    outer loop
      vertex -0.04192 -0.0220101 -0.004
      vertex -0.03788 -0.0150126 -0.004
      vertex -0.04596 -0.0150126 -0.004
    endloop
  endfacet
  facet normal -0 0 1
    outer loop
      vertex -0.04192 -0.00801509 -0.004
      vertex -0.04596 -0.0150126 -0.004
      vertex -0.03788 -0.0150126 -0.004
    endloop
  endfacet
  facet normal 0 -0 1
    outer loop
      vertex -0.04192 -0.0220101 -0.004
      vertex -0.03384 -0.0220101 -0.004
      vertex -0.03788 -0.0150126 -0.004
    endloop
  endfacet
  facet normal 0 0 1
    outer loop
      vertex -0.03384 -0.00801509 -0.004
      vertex -0.04192 -0.00801509 -0.004
      vertex -0.03788 -0.0150126 -0.004
    endloop
  endfacet
  facet normal 0 -0 1
    outer loop
      vertex -0.03384 -0.0220101 -0.004
      vertex -0.0298 -0.0150126 -0.004
      vertex -0.03788 -0.0150126 -0.004
    endloop
  endfacet
  facet normal -0 0 1
    outer loop
      vertex -0.03384 -0.00801509 -0.004
      vertex -0.03788 -0.0150126 -0.004
      vertex -0.0298 -0.0150126 -0.004
    endloop
  endfacet
  facet normal 0 -0 1
    outer loop
      vertex -0.03384 -0.0220101 -0.004
      vertex -0.02576 -0.0220101 -0.004
      vertex -0.0298 -0.0150126 -0.004
    endloop
  endfacet
  facet normal 0 0 1
    outer loop
      vertex -0.02576 -0.00801509 -0.004
      vertex -0.03384 -0.00801509 -0.004
      vertex -0.0298 -0.0150126 -0.004
    endloop
  endfacet
  facet normal 0 -0 1
    outer loop
      vertex -0.02576 -0.0220101 -0.004
      vertex -0.02172 -0.0150126 -0.004
      vertex -0.0298 -0.0150126 -0.004
    endloop
  endfacet
  facet normal -0 0 1
    outer loop
      vertex -0.02576 -0.00801509 -0.004
      vertex -0.0298 -0.0150126 -0.004
      vertex -0.02172 -0.0150126 -0.004
    endloop
  endfacet
  facet normal 0 -0 1
    outer loop
      vertex -0.02576 -0.0220101 -0.004
      vertex -0.01768 -0.0220101 -0.004
      vertex -0.02172 -0.0150126 -0.004
    endloop
  endfacet
  facet normal 0 0 1
    outer loop
      vertex -0.01768 -0.00801509 -0.004
      vertex -0.02576 -0.00801509 -0.004
      vertex -0.02172 -0.0150126 -0.004
    endloop
  endfacet
  facet normal 0 -0 1
    outer loop
      vertex -0.01768 -0.0220101 -0.004
      vertex -0.01364 -0.0150126 -0.004
      vertex -0.02172 -0.0150126 -0.004
    endloop
  endfacet
  facet normal -0 0 1
    outer loop
      vertex -0.01768 -0.00801509 -0.004
      vertex -0.02172 -0.0150126 -0.004
      vertex -0.01364 -0.0150126 -0.004
    endloop
  endfacet
  facet normal 0 -0 1
    outer loop
      vertex -0.01768 -0.0220101 -0.004
      vertex -0.0096 -0.0220101 -0.004
      vertex -0.01364 -0.0150126 -0.004
    endloop
  endfacet
  facet normal 0 0 1
    outer loop
      vertex -0.0096 -0.00801509 -0.004
      vertex -0.01768 -0.00801509 -0.004
      vertex -0.01364 -0.0150126 -0.004
    endloop
  endfacet
  facet normal 0 -0 1
    outer loop
      vertex -0.0096 -0.0220101 -0.004
      vertex -0.00556 -0.0150126 -0.004
      vertex -0.01364 -0.0150126 -0.004
    endloop
  endfacet
  facet normal -0 0 1
    outer loop
      vertex -0.0096 -0.00801509 -0.004
      vertex -0.01364 -0.0150126 -0.004
      vertex -0.00556 -0.0150126 -0.004
    endloop
  endfacet
  facet normal 0 -0 1
    outer loop
      vertex -0.0096 -0.0220101 -0.004
      vertex -0.00152 -0.0220101 -0.004
      vertex -0.00556 -0.0150126 -0.004
    endloop
  endfacet
  facet normal 0 0 1
    outer loop
      vertex -0.00152 -0.00801509 -0.004
      vertex -0.0096 -0.00801509 -0.004
      vertex -0.00556 -0.0150126 -0.004
    endloop
  endfacet
  facet normal 0 -0 1
    outer loop
      vertex -0.00152 -0.0220101 -0.004
      vertex 0.00252 -0.0150126 -0.004
      vertex -0.00556 -0.0150126 -0.004
    endloop
  endfacet
  facet normal -0 0 1
    outer loop
      vertex -0.00152 -0.00801509 -0.004
      vertex -0.00556 -0.0150126 -0.004
      vertex 0.00252 -0.0150126 -0.004
    endloop
  endfacet
  facet normal 0 -0 1
    outer loop
      vertex -0.00152 -0.0220101 -0.004
      vertex 0.00656 -0.0220101 -0.004
      vertex 0.00252 -0.0150126 -0.004
    endloop
  endfacet
  facet normal 0 0 1
    outer loop
      vertex 0.00656 -0.00801509 -0.004
      vertex -0.00152 -0.00801509 -0.004
      vertex 0.00252 -0.0150126 -0.004
    endloop
  endfacet
  facet normal 0 -0 1
    outer loop
      vertex 0.00656 -0.0220101 -0.004
      vertex 0.0106 -0.0150126 -0.004
      vertex 0.00252 -0.0150126 -0.004
    endloop
  endfacet
  facet normal -0 0 1
    outer loop
      vertex 0.00656 -0.00801509 -0.004
      vertex 0.00252 -0.0150126 -0.004
      vertex 0.0106 -0.0150126 -0.004
    endloop
  endfacet
  facet normal 0 -0 1
    outer loop
      vertex 0.00656 -0.0220101 -0.004
      vertex 0.01464 -0.0220101 -0.004
      vertex 0.0106 -0.0150126 -0.004
    endloop
  endfacet
  facet normal 0 0 1
    outer loop
      vertex 0.01464 -0.00801509 -0.004
      vertex 0.00656 -0.00801509 -0.004
      vertex 0.0106 -0.0150126 -0.004
    endloop
  endfacet
  facet normal 0 -0 1
    outer loop
      vertex 0.01464 -0.0220101 -0.004
      vertex 0.01868 -0.0150126 -0.004
      vertex 0.0106 -0.0150126 -0.004
    endloop
  endfacet
  facet normal -0 0 1
    outer loop
      vertex 0.01464 -0.00801509 -0.004
      vertex 0.0106 -0.0150126 -0.004
      vertex 0.01868 -0.0150126 -0.004
    endloop
  endfacet
  facet normal 0 -0 1
    outer loop
      vertex 0.01464 -0.0220101 -0.004
      vertex 0.02272 -0.0220101 -0.004
      vertex 0.01868 -0.0150126 -0.004
    endloop
  endfacet
  facet normal 0 0 1
    outer loop
      vertex 0.02272 -0.00801509 -0.004
      vertex 0.01464 -0.00801509 -0.004
      vertex 0.01868 -0.0150126 -0.004
    endloop
  endfacet
  facet normal 0 -0 1
    outer loop
      vertex 0.02272 -0.0220101 -0.004
      vertex 0.02676 -0.0150126 -0.004
      vertex 0.01868 -0.0150126 -0.004
    endloop
  endfacet
  facet normal -0 0 1
    outer loop
      vertex 0.02272 -0.00801509 -0.004
      vertex 0.01868 -0.0150126 -0.004
      vertex 0.02676 -0.0150126 -0.004
    endloop
  endfacet
  facet normal 0 -0 1
    outer loop
      vertex 0.02272 -0.0220101 -0.004
      vertex 0.0308 -0.0220101 -0.004
      vertex 0.02676 -0.0150126 -0.004
    endloop
  endfacet
  facet normal 0 0 1
    outer loop
      vertex 0.0308 -0.00801509 -0.004
      vertex 0.02272 -0.00801509 -0.004
      vertex 0.02676 -0.0150126 -0.004
    endloop
  endfacet
  facet normal 0 -0 1
    outer loop
      vertex 0.0308 -0.0220101 -0.004
      vertex 0.03484 -0.0150126 -0.004
      vertex 0.02676 -0.0150126 -0.004
    endloop
  endfacet
  facet normal -0 0 1
    outer loop
      vertex 0.0308 -0.00801509 -0.004
      vertex 0.02676 -0.0150126 -0.004
      vertex 0.03484 -0.0150126 -0.004
    endloop
  endfacet
  facet normal 0 -0 1
    outer loop
      vertex 0.0308 -0.0220101 -0.004
      vertex 0.03888 -0.0220101 -0.004
      vertex 0.03484 -0.0150126 -0.004
    endloop
  endfacet
  facet normal 0 0 1
    outer loop
      vertex 0.03888 -0.00801509 -0.004
      vertex 0.0308 -0.00801509 -0.004
      vertex 0.03484 -0.0150126 -0.004
    endloop
  endfacet
  facet normal 0 -0 1
    outer loop
      vertex 0.03888 -0.0220101 -0.004
      vertex 0.04292 -0.0150126 -0.004
      vertex 0.03484 -0.0150126 -0.004
    endloop
  endfacet
  facet normal -0 0 1
    outer loop
      vertex 0.03888 -0.00801509 -0.004
      vertex 0.03484 -0.0150126 -0.004
      vertex 0.04292 -0.0150126 -0.004
    endloop
  endfacet
  facet normal 0 -0 1
    outer loop
      vertex 0.03888 -0.0220101 -0.004
      vertex 0.04696 -0.0220101 -0.004
      vertex 0.04292 -0.0150126 -0.004
    endloop
  endfacet
  facet normal 0 0 1
    outer loop
      vertex 0.04696 -0.00801509 -0.004
      vertex 0.03888 -0.00801509 -0.004
      vertex 0.04292 -0.0150126 -0.004
    endloop
  endfacet
  facet normal 0 -0 1
    outer loop
      vertex 0.04696 -0.0220101 -0.004
      vertex 0.051 -0.0150126 -0.004
      vertex 0.04292 -0.0150126 -0.004
    endloop
  endfacet
  facet normal -0 0 1
    outer loop
      vertex 0.04696 -0.00801509 -0.004
      vertex 0.04292 -0.0150126 -0.004
      vertex 0.051 -0.0150126 -0.004
    endloop
  endfacet
  facet normal 0 -0 1
    outer loop
      vertex 0.04696 -0.0220101 -0.004
      vertex 0.05504 -0.0220101 -0.004
      vertex 0.051 -0.0150126 -0.004
    endloop
  endfacet
  facet normal 0 0 1
    outer loop
      vertex 0.05504 -0.00801509 -0.004
      vertex 0.04696 -0.00801509 -0.004
      vertex 0.051 -0.0150126 -0.004
    endloop
  endfacet
  facet normal 0 -0 1
    outer loop
      vertex 0.05504 -0.0220101 -0.004
      vertex 0.05908 -0.0150126 -0.004
      vertex 0.051 -0.0150126 -0.004
    endloop
  endfacet
  facet normal -0 0 1
    outer loop
      vertex 0.05504 -0.00801509 -0.004
      vertex 0.051 -0.0150126 -0.004
      vertex 0.05908 -0.0150126 -0.004
    endloop
  endfacet
  facet normal 0 -0 1
    outer loop
      vertex 0.05504 -0.0220101 -0.004
      vertex 0.06312 -0.0220101 -0.004
      vertex 0.05908 -0.0150126 -0.004
    endloop
  endfacet
  facet normal 0 0 1
    outer loop
      vertex 0.06312 -0.00801509 -0.004
      vertex 0.05504 -0.00801509 -0.004
      vertex 0.05908 -0.0150126 -0.004
    endloop
  endfacet
  facet normal 0 -0 1
    outer loop
      vertex 0.06312 -0.0220101 -0.004
      vertex 0.06716 -0.0150126 -0.004
      vertex 0.05908 -0.0150126 -0.004
    endloop
  endfacet
  facet normal -0 0 1
    outer loop
      vertex 0.06312 -0.00801509 -0.004
      vertex 0.05908 -0.0150126 -0.004
      vertex 0.06716 -0.0150126 -0.004
    endloop
  endfacet
  facet normal 0 -0 1
    outer loop
      vertex -0.05 -0.00801509 -0.004
      vertex -0.04192 -0.00801509 -0.004
      vertex -0.04596 -0.0010176 -0.004
    endloop
  endfacet
  facet normal 0 0 1
    outer loop
      vertex -0.04192 0.00597988 -0.004
      vertex -0.05 0.00597988 -0.004
      vertex -0.04596 -0.0010176 -0.004
    endloop
  endfacet
  facet normal 0 -0 1
    outer loop
      vertex -0.04192 -0.00801509 -0.004
      vertex -0.03788 -0.0010176 -0.004
      vertex -0.04596 -0.0010176 -0.004
    endloop
  endfacet
  facet normal -0 0 1
    outer loop
      vertex -0.04192 0.00597988 -0.004
      vertex -0.04596 -0.0010176 -0.004
      vertex -0.03788 -0.0010176 -0.004
    endloop
  endfacet
  facet normal 0 -0 1
    outer loop
      vertex -0.04192 -0.00801509 -0.004
      vertex -0.03384 -0.00801509 -0.004
      vertex -0.03788 -0.0010176 -0.004
    endloop
  endfacet
  facet normal 0 0 1
    outer loop
      vertex -0.03384 0.00597988 -0.004
      vertex -0.04192 0.00597988 -0.004
      vertex -0.03788 -0.0010176 -0.004
    endloop
  endfacet
  facet normal 0 -0 1
    outer loop
      vertex -0.03384 -0.00801509 -0.004
      vertex -0.0298 -0.0010176 -0.004
      vertex -0.03788 -0.0010176 -0.004
    endloop
  endfacet
  facet normal -0 0 1
    outer loop
      vertex -0.03384 0.00597988 -0.004
      vertex -0.03788 -0.0010176 -0.004
      vertex -0.0298 -0.0010176 -0.004
    endloop
  endfacet
  facet normal 0 -0 1
    outer loop
      vertex -0.03384 -0.00801509 -0.004
      vertex -0.02576 -0.00801509 -0.004
      vertex -0.0298 -0.0010176 -0.004
    endloop
  endfacet
  facet normal 0 0 1
    outer loop
      vertex -0.02576 0.00597988 -0.004
      vertex -0.03384 0.00597988 -0.004
      vertex -0.0298 -0.0010176 -0.004
    endloop
  endfacet
  facet normal 0 -0 1
    outer loop
      vertex -0.02576 -0.00801509 -0.004
      vertex -0.02172 -0.0010176 -0.004
      vertex -0.0298 -0.0010176 -0.004
    endloop
  endfacet
  facet normal -0 0 1
    outer loop
      vertex -0.02576 0.00597988 -0.004
      vertex -0.0298 -0.0010176 -0.004
      vertex -0.02172 -0.0010176 -0.004
    endloop
  endfacet
  facet normal 0 -0 1
    outer loop
      vertex -0.02576 -0.00801509 -0.004
      vertex -0.01768 -0.00801509 -0.004
      vertex -0.02172 -0.0010176 -0.004
    endloop
  endfacet
  facet normal 0 0 1
    outer loop
      vertex -0.01768 0.00597988 -0.004
      vertex -0.02576 0.00597988 -0.004
      vertex -0.02172 -0.0010176 -0.004
    endloop
  endfacet
  facet normal 0 -0 1
    outer loop
      vertex -0.01768 -0.00801509 -0.004
      vertex -0.01364 -0.0010176 -0.004
      vertex -0.02172 -0.0010176 -0.004
    endloop
  endfacet
  facet normal -0 0 1
    outer loop
      vertex -0.01768 0.00597988 -0.004
      vertex -0.02172 -0.0010176 -0.004
      vertex -0.01364 -0.0010176 -0.004
    endloop
  endfacet
  facet normal 0 -0 1
    outer loop
      vertex -0.01768 -0.00801509 -0.004
      vertex -0.0096 -0.00801509 -0.004
      vertex -0.01364 -0.0010176 -0.004
    endloop
  endfacet
  facet normal 0 0 1
    outer loop
      vertex -0.0096 0.00597988 -0.004
      vertex -0.01768 0.00597988 -0.004
      vertex -0.01364 -0.0010176 -0.004
    endloop
  endfacet
  facet normal 0 -0 1
    outer loop
      vertex -0.0096 -0.00801509 -0.004
      vertex -0.00556 -0.0010176 -0.004
      vertex -0.01364 -0.0010176 -0.004
    endloop
  endfacet
  facet normal -0 0 1
    outer loop
      vertex -0.0096 0.00597988 -0.004
      vertex -0.01364 -0.0010176 -0.004
      vertex -0.00556 -0.0010176 -0.004
    endloop
  endfacet
  facet normal 0 -0 1
    outer loop
      vertex -0.0096 -0.00801509 -0.004
      vertex -0.00152 -0.00801509 -0.004
      vertex -0.00556 -0.0010176 -0.004
    endloop
  endfacet
  facet normal 0 0 1
    outer loop
      vertex -0.00152 0.00597988 -0.004
      vertex -0.0096 0.00597988 -0.004
      vertex -0.00556 -0.0010176 -0.004
    endloop
  endfacet
  facet normal 0 -0 1
    outer loop
      vertex -0.00152 -0.00801509 -0.004
      vertex 0.00252 -0.0010176 -0.004
      vertex -0.00556 -0.0010176 -0.004
    endloop
  endfacet
  facet normal -0 0 1
    outer loop
      vertex -0.00152 0.00597988 -0.004
      vertex -0.00556 -0.0010176 -0.004
      vertex 0.00252 -0.0010176 -0.004
    endloop
  endfacet
  facet normal 0 -0 1
    outer loop
      vertex -0.00152 -0.00801509 -0.004
      vertex 0.00656 -0.00801509 -0.004
      vertex 0.00252 -0.0010176 -0.004
    endloop
  endfacet
  facet normal 0 0 1
    outer loop
      vertex 0.00656 0.00597988 -0.004
      vertex -0.00152 0.00597988 -0.004
      vertex 0.00252 -0.0010176 -0.004
    endloop
  endfacet
  facet normal 0 -0 1
    outer loop
      vertex 0.00656 -0.00801509 -0.004
      vertex 0.0106 -0.0010176 -0.004
      vertex 0.00252 -0.0010176 -0.004
    endloop
  endfacet
  facet normal -0 0 1
    outer loop
      vertex 0.00656 0.00597988 -0.004
      vertex 0.00252 -0.0010176 -0.004
      vertex 0.0106 -0.0010176 -0.004
    endloop
  endfacet
  facet normal 0 -0 1
    outer loop
      vertex 0.00656 -0.00801509 -0.004
      vertex 0.01464 -0.00801509 -0.004
      vertex 0.0106 -0.0010176 -0.004
    endloop
  endfacet
  facet normal 0 0 1
    outer loop
      vertex 0.01464 0.00597988 -0.004
      vertex 0.00656 0.00597988 -0.004
      vertex 0.0106 -0.0010176 -0.004
    endloop
  endfacet
  facet normal 0 -0 1
    outer loop
      vertex 0.01464 -0.00801509 -0.004
      vertex 0.01868 -0.0010176 -0.004
      vertex 0.0106 -0.0010176 -0.004
    endloop
  endfacet
  facet normal -0 0 1
    outer loop
      vertex 0.01464 0.00597988 -0.004
      vertex 0.0106 -0.0010176 -0.004
      vertex 0.01868 -0.0010176 -0.004
    endloop
  endfacet
  facet normal 0 -0 1
    outer loop
      vertex 0.01464 -0.00801509 -0.004
      vertex 0.02272 -0.00801509 -0.004
      vertex 0.01868 -0.0010176 -0.004
    endloop
  endfacet
  facet normal 0 0 1
    outer loop
      vertex 0.02272 0.00597988 -0.004
      vertex 0.01464 0.00597988 -0.004
      vertex 0.01868 -0.0010176 -0.004
    endloop
  endfacet
  facet normal 0 -0 1
    outer loop
      vertex 0.02272 -0.00801509 -0.004
      vertex 0.02676 -0.0010176 -0.004
      vertex 0.01868 -0.0010176 -0.004
    endloop
  endfacet
  facet normal -0 0 1
    outer loop
      vertex 0.02272 0.00597988 -0.004
      vertex 0.01868 -0.0010176 -0.004
      vertex 0.02676 -0.0010176 -0.004
    endloop
  endfacet
  facet normal 0 -0 1
    outer loop
      vertex 0.02272 -0.00801509 -0.004
      vertex 0.0308 -0.00801509 -0.004
      vertex 0.02676 -0.0010176 -0.004
    endloop
  endfacet
  facet normal 0 0 1
    outer loop
      vertex 0.0308 0.00597988 -0.004
      vertex 0.02272 0.00597988 -0.004
      vertex 0.02676 -0.0010176 -0.004
    endloop
  endfacet
  facet normal 0 -0 1
    outer loop
      vertex 0.0308 -0.00801509 -0.004
      vertex 0.03484 -0.0010176 -0.004
      vertex 0.02676 -0.0010176 -0.004
    endloop
  endfacet
  facet normal -0 0 1
    outer loop
      vertex 0.0308 0.00597988 -0.004
      vertex 0.02676 -0.0010176 -0.004
      vertex 0.03484 -0.0010176 -0.004
    endloop
  endfacet
  facet normal 0 -0 1
    outer loop
      vertex 0.0308 -0.00801509 -0.004
      vertex 0.03888 -0.00801509 -0.004
      vertex 0.03484 -0.0010176 -0.004
    endloop
  endfacet
  facet normal 0 0 1
    outer loop
      vertex 0.03888 0.00597988 -0.004
      vertex 0.0308 0.00597988 -0.004
      vertex 0.03484 -0.0010176 -0.004
    endloop
  endfacet
  facet normal 0 -0 1
    outer loop
      vertex 0.03888 -0.00801509 -0.004
      vertex 0.04292 -0.0010176 -0.004
      vertex 0.03484 -0.0010176 -0.004
    endloop
  endfacet
  facet normal -0 0 1
    outer loop
      vertex 0.03888 0.00597988 -0.004
      vertex 0.03484 -0.0010176 -0.004
      vertex 0.04292 -0.0010176 -0.004
    endloop
  endfacet
  facet normal 0 -0 1
    outer loop
      vertex 0.03888 -0.00801509 -0.004
      vertex 0.04696 -0.00801509 -0.004
      vertex 0.04292 -0.0010176 -0.004
    endloop
  endfacet
  facet normal 0 0 1
    outer loop
      vertex 0.04696 0.00597988 -0.004
      vertex 0.03888 0.00597988 -0.004
      vertex 0.04292 -0.0010176 -0.004
    endloop
  endfacet
  facet normal 0 -0 1
    outer loop
      vertex 0.04696 -0.00801509 -0.004
      vertex 0.051 -0.0010176 -0.004
      vertex 0.04292 -0.0010176 -0.004
    endloop
  endfacet
  facet normal -0 0 1
    outer loop
      vertex 0.04696 0.00597988 -0.004
      vertex 0.04292 -0.0010176 -0.004
      vertex 0.051 -0.0010176 -0.004
    endloop
  endfacet
  facet normal 0 -0 1
    outer loop
      vertex 0.04696 -0.00801509 -0.004
      vertex 0.05504 -0.00801509 -0.004
      vertex 0.051 -0.0010176 -0.004
    endloop
  endfacet
  facet normal 0 0 1
    outer loop
      vertex 0.05504 0.00597988 -0.004
      vertex 0.04696 0.00597988 -0.004
      vertex 0.051 -0.0010176 -0.004
    endloop
  endfacet
  facet normal 0 -0 1
    outer loop
      vertex 0.05504 -0.00801509 -0.004
      vertex 0.05908 -0.0010176 -0.004
      vertex 0.051 -0.0010176 -0.004
    endloop
  endfacet
  facet normal -0 0 1
    outer loop
      vertex 0.05504 0.00597988 -0.004
      vertex 0.051 -0.0010176 -0.004
      vertex 0.05908 -0.0010176 -0.004
    endloop
  endfacet
  facet normal 0 -0 1
    outer loop
      vertex 0.05504 -0.00801509 -0.004
      vertex 0.06312 -0.00801509 -0.004
      vertex 0.05908 -0.0010176 -0.004
    endloop
  endfacet
  facet normal 0 0 1
    outer loop
      vertex 0.06312 0.00597988 -0.004
      vertex 0.05504 0.00597988 -0.004
      vertex 0.05908 -0.0010176 -0.004
    endloop
  endfacet
  facet normal 0 -0 1
    outer loop
      vertex 0.06312 -0.00801509 -0.004
      vertex 0.06716 -0.0010176 -0.004
      vertex 0.05908 -0.0010176 -0.004
    endloop
  endfacet
  facet normal -0 0 1
    outer loop
      vertex 0.06312 0.00597988 -0.004
      vertex 0.05908 -0.0010176 -0.004
      vertex 0.06716 -0.0010176 -0.004
    endloop
  endfacet
  facet normal 0 -0 1
    outer loop
      vertex -0.05 0.00597988 -0.004
      vertex -0.04192 0.00597988 -0.004
      vertex -0.04596 0.0129774 -0.004
    endloop
  endfacet
  facet normal 0 0 1
    outer loop
      vertex -0.04192 0.0199749 -0.004
      vertex -0.05 0.0199749 -0.004
      vertex -0.04596 0.0129774 -0.004
    endloop
  endfacet
  facet normal 0 -0 1
    outer loop
      vertex -0.04192 0.00597988 -0.004
      vertex -0.03788 0.0129774 -0.004
      vertex -0.04596 0.0129774 -0.004
    endloop
  endfacet
  facet normal -0 0 1
    outer loop
      vertex -0.04192 0.0199749 -0.004
      vertex -0.04596 0.0129774 -0.004
      vertex -0.03788 0.0129774 -0.004
    endloop
  endfacet
  facet normal 0 -0 1
    outer loop
      vertex -0.04192 0.00597988 -0.004
      vertex -0.03384 0.00597988 -0.004
      vertex -0.03788 0.0129774 -0.004
    endloop
  endfacet
  facet normal 0 0 1
    outer loop
      vertex -0.03384 0.0199749 -0.004
      vertex -0.04192 0.0199749 -0.004
      vertex -0.03788 0.0129774 -0.004
    endloop
  endfacet
  facet normal 0 -0 1
    outer loop
      vertex -0.03384 0.00597988 -0.004
      vertex -0.0298 0.0129774 -0.004
      vertex -0.03788 0.0129774 -0.004
    endloop
  endfacet
  facet normal -0 0 1
    outer loop
      vertex -0.03384 0.0199749 -0.004
      vertex -0.03788 0.0129774 -0.004
      vertex -0.0298 0.0129774 -0.004
    endloop
  endfacet
  facet normal 0 -0 1
    outer loop
      vertex -0.03384 0.00597988 -0.004
      vertex -0.02576 0.00597988 -0.004
      vertex -0.0298 0.0129774 -0.004
    endloop
  endfacet
  facet normal 0 0 1
    outer loop
      vertex -0.02576 0.0199749 -0.004
      vertex -0.03384 0.0199749 -0.004
      vertex -0.0298 0.0129774 -0.004
    endloop
  endfacet
  facet normal 0 -0 1
    outer loop
      vertex -0.02576 0.00597988 -0.004
      vertex -0.02172 0.0129774 -0.004
      vertex -0.0298 0.0129774 -0.004
    endloop
  endfacet
  facet normal -0 0 1
    outer loop
      vertex -0.02576 0.0199749 -0.004
      vertex -0.0298 0.0129774 -0.004
      vertex -0.02172 0.0129774 -0.004
    endloop
  endfacet
  facet normal 0 -0 1
    outer loop
      vertex -0.02576 0.00597988 -0.004
      vertex -0.01768 0.00597988 -0.004
      vertex -0.02172 0.0129774 -0.004
    endloop
  endfacet
  facet normal 0 0 1
    outer loop
      vertex -0.01768 0.0199749 -0.004
      vertex -0.02576 0.0199749 -0.004
      vertex -0.02172 0.0129774 -0.004
    endloop
  endfacet
  facet normal 0 -0 1
    outer loop
      vertex -0.01768 0.00597988 -0.004
      vertex -0.01364 0.0129774 -0.004
      vertex -0.02172 0.0129774 -0.004
    endloop
  endfacet
  facet normal -0 0 1
    outer loop
      vertex -0.01768 0.0199749 -0.004
      vertex -0.02172 0.0129774 -0.004
      vertex -0.01364 0.0129774 -0.004
    endloop
  endfacet
  facet normal 0 -0 1
    outer loop
      vertex -0.01768 0.00597988 -0.004
      vertex -0.0096 0.00597988 -0.004
      vertex -0.01364 0.0129774 -0.004
    endloop
  endfacet
  facet normal 0 0 1
    outer loop
      vertex -0.0096 0.0199749 -0.004
      vertex -0.01768 0.0199749 -0.004
      vertex -0.01364 0.0129774 -0.004
    endloop
  endfacet
  facet normal 0 -0 1
    outer loop
      vertex -0.0096 0.00597988 -0.004
      vertex -0.00556 0.0129774 -0.004
      vertex -0.01364 0.0129774 -0.004
    endloop
  endfacet
  facet normal -0 0 1
    outer loop
      vertex -0.0096 0.0199749 -0.004
      vertex -0.01364 0.0129774 -0.004
      vertex -0.00556 0.0129774 -0.004
    endloop
  endfacet
  facet normal 0 -0 1
    outer loop
      vertex -0.0096 0.00597988 -0.004
      vertex -0.00152 0.00597988 -0.004
      vertex -0.00556 0.0129774 -0.004
    endloop
  endfacet
  facet normal 0 0 1
    outer loop
      vertex -0.00152 0.0199749 -0.004
      vertex -0.0096 0.0199749 -0.004
      vertex -0.00556 0.0129774 -0.004
    endloop
  endfacet
  facet normal 0 -0 1
    outer loop
      vertex -0.00152 0.00597988 -0.004
      vertex 0.00252 0.0129774 -0.004
      vertex -0.00556 0.0129774 -0.004
    endloop
  endfacet
  facet normal -0 0 1
    outer loop
      vertex -0.00152 0.0199749 -0.004
      vertex -0.00556 0.0129774 -0.004
      vertex 0.00252 0.0129774 -0.004
    endloop
  endfacet
  facet normal 0 -0 1
    outer loop
      vertex -0.00152 0.00597988 -0.004
      vertex 0.00656 0.00597988 -0.004
      vertex 0.00252 0.0129774 -0.004
    endloop
  endfacet
  facet normal 0 0 1
    outer loop
      vertex 0.00656 0.0199749 -0.004
      vertex -0.00152 0.0199749 -0.004
      vertex 0.00252 0.0129774 -0.004
    endloop
  endfacet
  facet normal 0 -0 1
    outer loop
      vertex 0.00656 0.00597988 -0.004
      vertex 0.0106 0.0129774 -0.004
      vertex 0.00252 0.0129774 -0.004
    endloop
  endfacet
  facet normal -0 0 1
    outer loop
      vertex 0.00656 0.0199749 -0.004
      vertex 0.00252 0.0129774 -0.004
      vertex 0.0106 0.0129774 -0.004
    endloop
  endfacet
  facet normal 0 -0 1
    outer loop
      vertex 0.00656 0.00597988 -0.004
      vertex 0.01464 0.00597988 -0.004
      vertex 0.0106 0.0129774 -0.004
    endloop
  endfacet
  facet normal 0 0 1
    outer loop
      vertex 0.01464 0.0199749 -0.004
      vertex 0.00656 0.0199749 -0.004
      vertex 0.0106 0.0129774 -0.004
    endloop
  endfacet
  facet normal 0 -0 1
    outer loop
      vertex 0.01464 0.00597988 -0.004
      vertex 0.01868 0.0129774 -0.004
      vertex 0.0106 0.0129774 -0.004
    endloop
  endfacet
  facet normal -0 0 1
    outer loop
      vertex 0.01464 0.0199749 -0.004
      vertex 0.0106 0.0129774 -0.004
      vertex 0.01868 0.0129774 -0.004
    endloop
  endfacet
  facet normal 0 -0 1
    outer loop
      vertex 0.01464 0.00597988 -0.004
      vertex 0.02272 0.00597988 -0.004
      vertex 0.01868 0.0129774 -0.004
    endloop
  endfacet
  facet normal 0 0 1
    outer loop
      vertex 0.02272 0.0199749 -0.004
      vertex 0.01464 0.0199749 -0.004
      vertex 0.01868 0.0129774 -0.004
    endloop
  endfacet
  facet normal 0 -0 1
    outer loop
      vertex 0.02272 0.00597988 -0.004
      vertex 0.02676 0.0129774 -0.004
      vertex 0.01868 0.0129774 -0.004
    endloop
  endfacet
  facet normal -0 0 1
    outer loop
      vertex 0.02272 0.0199749 -0.004
      vertex 0.01868 0.0129774 -0.004
      vertex 0.02676 0.0129774 -0.004
    endloop
  endfacet
  facet normal 0 -0 1
    outer loop
      vertex 0.02272 0.00597988 -0.004
      vertex 0.0308 0.00597988 -0.004
      vertex 0.02676 0.0129774 -0.004
    endloop
  endfacet
  facet normal 0 0 1
    outer loop
      vertex 0.0308 0.0199749 -0.004
      vertex 0.02272 0.0199749 -0.004
      vertex 0.02676 0.0129774 -0.004
    endloop
  endfacet
  facet normal 0 -0 1
    outer loop
      vertex 0.0308 0.00597988 -0.004
      vertex 0.03484 0.0129774 -0.004
      vertex 0.02676 0.0129774 -0.004
    endloop
  endfacet
  facet normal -0 0 1
    outer loop
      vertex 0.0308 0.0199749 -0.004
      vertex 0.02676 0.0129774 -0.004
      vertex 0.03484 0.0129774 -0.004
    endloop
  endfacet
  facet normal 0 -0 1
    outer loop
      vertex 0.0308 0.00597988 -0.004
      vertex 0.03888 0.00597988 -0.004
      vertex 0.03484 0.0129774 -0.004
    endloop
  endfacet
  facet normal 0 0 1
    outer loop
      vertex 0.03888 0.0199749 -0.004
      vertex 0.0308 0.0199749 -0.004
      vertex 0.03484 0.0129774 -0.004
    endloop
  endfacet
  facet normal 0 -0 1
    outer loop
      vertex 0.03888 0.00597988 -0.004
      vertex 0.04292 0.0129774 -0.004
      vertex 0.03484 0.0129774 -0.004
    endloop
  endfacet
  facet normal -0 0 1
    outer loop
      vertex 0.03888 0.0199749 -0.004
      vertex 0.03484 0.0129774 -0.004
      vertex 0.04292 0.0129774 -0.004
    endloop
  endfacet
  facet normal 0 -0 1
    outer loop
      vertex 0.03888 0.00597988 -0.004
      vertex 0.04696 0.00597988 -0.004
      vertex 0.04292 0.0129774 -0.004
    endloop
  endfacet
  facet normal 0 0 1
    outer loop
      vertex 0.04696 0.0199749 -0.004
      vertex 0.03888 0.0199749 -0.004
      vertex 0.04292 0.0129774 -0.004
    endloop
  endfacet
  facet normal 0 -0 1
    outer loop
      vertex 0.04696 0.00597988 -0.004
      vertex 0.051 0.0129774 -0.004
      vertex 0.04292 0.0129774 -0.004
    endloop
  endfacet
  facet normal -0 0 1
    outer loop
      vertex 0.04696 0.0199749 -0.004
      vertex 0.04292 0.0129774 -0.004
      vertex 0.051 0.0129774 -0.004
    endloop
  endfacet
  facet normal 0 -0 1
    outer loop
      vertex 0.04696 0.00597988 -0.004
      vertex 0.05504 0.00597988 -0.004
      vertex 0.051 0.0129774 -0.004
    endloop
  endfacet
  facet normal 0 0 1
    outer loop
      vertex 0.05504 0.0199749 -0.004
      vertex 0.04696 0.0199749 -0.004
      vertex 0.051 0.0129774 -0.004
    endloop
  endfacet
  facet normal 0 -0 1
    outer loop
      vertex 0.05504 0.00597988 -0.004
      vertex 0.05908 0.0129774 -0.004
      vertex 0.051 0.0129774 -0.004
    endloop
  endfacet
  facet normal -0 0 1
    outer loop
      vertex 0.05504 0.0199749 -0.004
      vertex 0.051 0.0129774 -0.004
      vertex 0.05908 0.0129774 -0.004
    endloop
  endfacet
  facet normal 0 -0 1
    outer loop
      vertex 0.05504 0.00597988 -0.004
      vertex 0.06312 0.00597988 -0.004
      vertex 0.05908 0.0129774 -0.004
    endloop
  endfacet
  facet normal 0 0 1
    outer loop
      vertex 0.06312 0.0199749 -0.004
      vertex 0.05504 0.0199749 -0.004
      vertex 0.05908 0.0129774 -0.004
    endloop
  endfacet
  facet normal 0 -0 1
    outer loop
      vertex 0.06312 0.00597988 -0.004
      vertex 0.06716 0.0129774 -0.004
      vertex 0.05908 0.0129774 -0.004
    endloop
  endfacet
  facet normal -0 0 1
    outer loop
      vertex 0.06312 0.0199749 -0.004
      vertex 0.05908 0.0129774 -0.004
      vertex 0.06716 0.0129774 -0.004
    endloop
  endfacet
  facet normal 0 -0 1
    outer loop
      vertex -0.05 0.0199749 -0.004
      vertex -0.04192 0.0199749 -0.004
      vertex -0.04596 0.0269723 -0.004
    endloop
  endfacet
  facet normal 0 0 1
    outer loop
      vertex -0.04192 0.0339698 -0.004
      vertex -0.05 0.0339698 -0.004
      vertex -0.04596 0.0269723 -0.004
    endloop
  endfacet
  facet normal 0 -0 1
    outer loop
      vertex -0.04192 0.0199749 -0.004
      vertex -0.03788 0.0269723 -0.004
      vertex -0.04596 0.0269723 -0.004
    endloop
  endfacet
  facet normal -0 0 1
    outer loop
      vertex -0.04192 0.0339698 -0.004
      vertex -0.04596 0.0269723 -0.004
      vertex -0.03788 0.0269723 -0.004
    endloop
  endfacet
  facet normal 0 -0 1
    outer loop
      vertex -0.04192 0.0199749 -0.004
      vertex -0.03384 0.0199749 -0.004
      vertex -0.03788 0.0269723 -0.004
    endloop
  endfacet
  facet normal 0 0 1
    outer loop
      vertex -0.03384 0.0339698 -0.004
      vertex -0.04192 0.0339698 -0.004
      vertex -0.03788 0.0269723 -0.004
    endloop
  endfacet
  facet normal 0 -0 1
    outer loop
      vertex -0.03384 0.0199749 -0.004
      vertex -0.0298 0.0269723 -0.004
      vertex -0.03788 0.0269723 -0.004
    endloop
  endfacet
  facet normal -0 0 1
    outer loop
      vertex -0.03384 0.0339698 -0.004
      vertex -0.03788 0.0269723 -0.004
      vertex -0.0298 0.0269723 -0.004
    endloop
  endfacet
  facet normal 0 -0 1
    outer loop
      vertex -0.03384 0.0199749 -0.004
      vertex -0.02576 0.0199749 -0.004
      vertex -0.0298 0.0269723 -0.004
    endloop
  endfacet
  facet normal 0 0 1
    outer loop
      vertex -0.02576 0.0339698 -0.004
      vertex -0.03384 0.0339698 -0.004
      vertex -0.0298 0.0269723 -0.004
    endloop
  endfacet
  facet normal 0 -0 1
    outer loop
      vertex -0.02576 0.0199749 -0.004
      vertex -0.02172 0.0269723 -0.004
      vertex -0.0298 0.0269723 -0.004
    endloop
  endfacet
  facet normal -0 0 1
    outer loop
      vertex -0.02576 0.0339698 -0.004
      vertex -0.0298 0.0269723 -0.004
      vertex -0.02172 0.0269723 -0.004
    endloop
  endfacet
  facet normal 0 -0 1
    outer loop
      vertex -0.02576 0.0199749 -0.004
      vertex -0.01768 0.0199749 -0.004
      vertex -0.02172 0.0269723 -0.004
    endloop
  endfacet
  facet normal 0 0 1
    outer loop
      vertex -0.01768 0.0339698 -0.004
      vertex -0.02576 0.0339698 -0.004
      vertex -0.02172 0.0269723 -0.004
    endloop
  endfacet
  facet normal 0 -0 1
    outer loop
      vertex -0.01768 0.0199749 -0.004
      vertex -0.01364 0.0269723 -0.004
      vertex -0.02172 0.0269723 -0.004
    endloop
  endfacet
  facet normal -0 0 1
    outer loop
      vertex -0.01768 0.0339698 -0.004
      vertex -0.02172 0.0269723 -0.004
      vertex -0.01364 0.0269723 -0.004
    endloop
  endfacet
  facet normal 0 -0 1
    outer loop
      vertex -0.01768 0.0199749 -0.004
      vertex -0.0096 0.0199749 -0.004
      vertex -0.01364 0.0269723 -0.004
    endloop
  endfacet
  facet normal 0 0 1
    outer loop
      vertex -0.0096 0.0339698 -0.004
      vertex -0.01768 0.0339698 -0.004
      vertex -0.01364 0.0269723 -0.004
    endloop
  endfacet
  facet normal 0 -0 1
    outer loop
      vertex -0.0096 0.0199749 -0.004
      vertex -0.00556 0.0269723 -0.004
      vertex -0.01364 0.0269723 -0.004
    endloop
  endfacet
  facet normal -0 0 1
    outer loop
      vertex -0.0096 0.0339698 -0.004
      vertex -0.01364 0.0269723 -0.004
      vertex -0.00556 0.0269723 -0.004
    endloop
  endfacet
  facet normal 0 -0 1
    outer loop
      vertex -0.0096 0.0199749 -0.004
      vertex -0.00152 0.0199749 -0.004
      vertex -0.00556 0.0269723 -0.004
    endloop
  endfacet
  facet normal 0 0 1
    outer loop
      vertex -0.00152 0.0339698 -0.004
      vertex -0.0096 0.0339698 -0.004
      vertex -0.00556 0.0269723 -0.004
    endloop
  endfacet
  facet normal 0 -0 1
    outer loop
      vertex -0.00152 0.0199749 -0.004
      vertex 0.00252 0.0269723 -0.004
      vertex -0.00556 0.0269723 -0.004
    endloop
  endfacet
  facet normal -0 0 1
    outer loop
      vertex -0.00152 0.0339698 -0.004
      vertex -0.00556 0.0269723 -0.004
      vertex 0.00252 0.0269723 -0.004
    endloop
  endfacet
  facet normal 0 -0 1
    outer loop
      vertex -0.00152 0.0199749 -0.004
      vertex 0.00656 0.0199749 -0.004
      vertex 0.00252 0.0269723 -0.004
    endloop
  endfacet
  facet normal 0 0 1
    outer loop
      vertex 0.00656 0.0339698 -0.004
      vertex -0.00152 0.0339698 -0.004
      vertex 0.00252 0.0269723 -0.004
    endloop
  endfacet
  facet normal 0 -0 1
    outer loop
      vertex 0.00656 0.0199749 -0.004
      vertex 0.0106 0.0269723 -0.004
      vertex 0.00252 0.0269723 -0.004
    endloop
  endfacet
  facet normal -0 0 1
    outer loop
      vertex 0.00656 0.0339698 -0.004
      vertex 0.00252 0.0269723 -0.004
      vertex 0.0106 0.0269723 -0.004
    endloop
  endfacet
  facet normal 0 -0 1
    outer loop
      vertex 0.00656 0.0199749 -0.004
      vertex 0.01464 0.0199749 -0.004
      vertex 0.0106 0.0269723 -0.004
    endloop
  endfacet
  facet normal 0 0 1
    outer loop
      vertex 0.01464 0.0339698 -0.004
      vertex 0.00656 0.0339698 -0.004
      vertex 0.0106 0.0269723 -0.004
    endloop
  endfacet
  facet normal 0 -0 1
    outer loop
      vertex 0.01464 0.0199749 -0.004
      vertex 0.01868 0.0269723 -0.004
      vertex 0.0106 0.0269723 -0.004
    endloop
  endfacet
  facet normal -0 0 1
    outer loop
      vertex 0.01464 0.0339698 -0.004
      vertex 0.0106 0.0269723 -0.004
      vertex 0.01868 0.0269723 -0.004
    endloop
  endfacet
  facet normal 0 -0 1
    outer loop
      vertex 0.01464 0.0199749 -0.004
      vertex 0.02272 0.0199749 -0.004
      vertex 0.01868 0.0269723 -0.004
    endloop
  endfacet
  facet normal 0 0 1
    outer loop
      vertex 0.02272 0.0339698 -0.004
      vertex 0.01464 0.0339698 -0.004
      vertex 0.01868 0.0269723 -0.004
    endloop
  endfacet
  facet normal 0 -0 1
    outer loop
      vertex 0.02272 0.0199749 -0.004
      vertex 0.02676 0.0269723 -0.004
      vertex 0.01868 0.0269723 -0.004
    endloop
  endfacet
  facet normal -0 0 1
    outer loop
      vertex 0.02272 0.0339698 -0.004
      vertex 0.01868 0.0269723 -0.004
      vertex 0.02676 0.0269723 -0.004
    endloop
  endfacet
  facet normal 0 -0 1
    outer loop
      vertex 0.02272 0.0199749 -0.004
      vertex 0.0308 0.0199749 -0.004
      vertex 0.02676 0.0269723 -0.004
    endloop
  endfacet
  facet normal 0 0 1
    outer loop
      vertex 0.0308 0.0339698 -0.004
      vertex 0.02272 0.0339698 -0.004
      vertex 0.02676 0.0269723 -0.004
    endloop
  endfacet
  facet normal 0 -0 1
    outer loop
      vertex 0.0308 0.0199749 -0.004
      vertex 0.03484 0.0269723 -0.004
      vertex 0.02676 0.0269723 -0.004
    endloop
  endfacet
  facet normal -0 0 1
    outer loop
      vertex 0.0308 0.0339698 -0.004
      vertex 0.02676 0.0269723 -0.004
      vertex 0.03484 0.0269723 -0.004
    endloop
  endfacet
  facet normal 0 -0 1
    outer loop
      vertex 0.0308 0.0199749 -0.004
      vertex 0.03888 0.0199749 -0.004
      vertex 0.03484 0.0269723 -0.004
    endloop
  endfacet
  facet normal 0 0 1
    outer loop
      vertex 0.03888 0.0339698 -0.004
      vertex 0.0308 0.0339698 -0.004
      vertex 0.03484 0.0269723 -0.004
    endloop
  endfacet
  facet normal 0 -0 1
    outer loop
      vertex 0.03888 0.0199749 -0.004
      vertex 0.04292 0.0269723 -0.004
      vertex 0.03484 0.0269723 -0.004
    endloop
  endfacet
  facet normal -0 0 1
    outer loop
      vertex 0.03888 0.0339698 -0.004
      vertex 0.03484 0.0269723 -0.004
      vertex 0.04292 0.0269723 -0.004
    endloop
  endfacet
  facet normal 0 -0 1
    outer loop
      vertex 0.03888 0.0199749 -0.004
      vertex 0.04696 0.0199749 -0.004
      vertex 0.04292 0.0269723 -0.004
    endloop
  endfacet
  facet normal 0 0 1
    outer loop
      vertex 0.04696 0.0339698 -0.004
      vertex 0.03888 0.0339698 -0.004
      vertex 0.04292 0.0269723 -0.004
    endloop
  endfacet
  facet normal 0 -0 1
    outer loop
      vertex 0.04696 0.0199749 -0.004
      vertex 0.051 0.0269723 -0.004
      vertex 0.04292 0.0269723 -0.004
    endloop
  endfacet
  facet normal -0 0 1
    outer loop
      vertex 0.04696 0.0339698 -0.004
      vertex 0.04292 0.0269723 -0.004
      vertex 0.051 0.0269723 -0.004
    endloop
  endfacet
  facet normal 0 -0 1
    outer loop
      vertex 0.04696 0.0199749 -0.004
      vertex 0.05504 0.0199749 -0.004
      vertex 0.051 0.0269723 -0.004
    endloop
  endfacet
  facet normal 0 0 1
    outer loop
      vertex 0.05504 0.0339698 -0.004
      vertex 0.04696 0.0339698 -0.004
      vertex 0.051 0.0269723 -0.004
    endloop
  endfacet
  facet normal 0 -0 1
    outer loop
      vertex 0.05504 0.0199749 -0.004
      vertex 0.05908 0.0269723 -0.004
      vertex 0.051 0.0269723 -0.004
    endloop
  endfacet
  facet normal -0 0 1
    outer loop
      vertex 0.05504 0.0339698 -0.004
      vertex 0.051 0.0269723 -0.004
      vertex 0.05908 0.0269723 -0.004
    endloop
  endfacet
  facet normal 0 -0 1
    outer loop
      vertex 0.05504 0.0199749 -0.004
      vertex 0.06312 0.0199749 -0.004
      vertex 0.05908 0.0269723 -0.004
    endloop
  endfacet
  facet normal 0 0 1
    outer loop
      vertex 0.06312 0.0339698 -0.004
      vertex 0.05504 0.0339698 -0.004
      vertex 0.05908 0.0269723 -0.004
    endloop
  endfacet
  facet normal 0 -0 1
    outer loop
      vertex 0.06312 0.0199749 -0.004
      vertex 0.06716 0.0269723 -0.004
      vertex 0.05908 0.0269723 -0.004
    endloop
  endfacet
  facet normal -0 0 1
    outer loop
      vertex 0.06312 0.0339698 -0.004
      vertex 0.05908 0.0269723 -0.004
      vertex 0.06716 0.0269723 -0.004
    endloop
  endfacet
  facet normal 0 -0 1
    outer loop
      vertex -0.05 0.0339698 -0.004
      vertex -0.04192 0.0339698 -0.004
      vertex -0.04596 0.0409673 -0.004
    endloop
  endfacet
  facet normal 0 0 1
    outer loop
      vertex -0.04192 0.0479648 -0.004
      vertex -0.05 0.0479648 -0.004
      vertex -0.04596 0.0409673 -0.004
    endloop
  endfacet
  facet normal 0 -0 1
    outer loop
      vertex -0.04192 0.0339698 -0.004
      vertex -0.03788 0.0409673 -0.004
      vertex -0.04596 0.0409673 -0.004
    endloop
  endfacet
  facet normal -0 0 1
    outer loop
      vertex -0.04192 0.0479648 -0.004
      vertex -0.04596 0.0409673 -0.004
      vertex -0.03788 0.0409673 -0.004
    endloop
  endfacet
  facet normal 0 -0 1
    outer loop
      vertex -0.04192 0.0339698 -0.004
      vertex -0.03384 0.0339698 -0.004
      vertex -0.03788 0.0409673 -0.004
    endloop
  endfacet
  facet normal 0 0 1
    outer loop
      vertex -0.03384 0.0479648 -0.004
      vertex -0.04192 0.0479648 -0.004
      vertex -0.03788 0.0409673 -0.004
    endloop
  endfacet
  facet normal 0 -0 1
    outer loop
      vertex -0.03384 0.0339698 -0.004
      vertex -0.0298 0.0409673 -0.004
      vertex -0.03788 0.0409673 -0.004
    endloop
  endfacet
  facet normal -0 0 1
    outer loop
      vertex -0.03384 0.0479648 -0.004
      vertex -0.03788 0.0409673 -0.004
      vertex -0.0298 0.0409673 -0.004
    endloop
  endfacet
  facet normal 0 -0 1
    outer loop
      vertex -0.03384 0.0339698 -0.004
      vertex -0.02576 0.0339698 -0.004
      vertex -0.0298 0.0409673 -0.004
    endloop
  endfacet
  facet normal 0 0 1
    outer loop
      vertex -0.02576 0.0479648 -0.004
      vertex -0.03384 0.0479648 -0.004
      vertex -0.0298 0.0409673 -0.004
    endloop
  endfacet
  facet normal 0 -0 1
    outer loop
      vertex -0.02576 0.0339698 -0.004
      vertex -0.02172 0.0409673 -0.004
      vertex -0.0298 0.0409673 -0.004
    endloop
  endfacet
  facet normal -0 0 1
    outer loop
      vertex -0.02576 0.0479648 -0.004
      vertex -0.0298 0.0409673 -0.004
      vertex -0.02172 0.0409673 -0.004
    endloop
  endfacet
  facet normal 0 -0 1
    outer loop
      vertex -0.02576 0.0339698 -0.004
      vertex -0.01768 0.0339698 -0.004
      vertex -0.02172 0.0409673 -0.004
    endloop
  endfacet
  facet normal 0 0 1
    outer loop
      vertex -0.01768 0.0479648 -0.004
      vertex -0.02576 0.0479648 -0.004
      vertex -0.02172 0.0409673 -0.004
    endloop
  endfacet
  facet normal 0 -0 1
    outer loop
      vertex -0.01768 0.0339698 -0.004
      vertex -0.01364 0.0409673 -0.004
      vertex -0.02172 0.0409673 -0.004
    endloop
  endfacet
  facet normal -0 0 1
    outer loop
      vertex -0.01768 0.0479648 -0.004
      vertex -0.02172 0.0409673 -0.004
      vertex -0.01364 0.0409673 -0.004
    endloop
  endfacet
  facet normal 0 -0 1
    outer loop
      vertex -0.01768 0.0339698 -0.004
      vertex -0.0096 0.0339698 -0.004
      vertex -0.01364 0.0409673 -0.004
    endloop
  endfacet
  facet normal 0 0 1
    outer loop
      vertex -0.0096 0.0479648 -0.004
      vertex -0.01768 0.0479648 -0.004
      vertex -0.01364 0.0409673 -0.004
    endloop
  endfacet
  facet normal 0 -0 1
    outer loop
      vertex -0.0096 0.0339698 -0.004
      vertex -0.00556 0.0409673 -0.004
      vertex -0.01364 0.0409673 -0.004
    endloop
  endfacet
  facet normal -0 0 1
    outer loop
      vertex -0.0096 0.0479648 -0.004
      vertex -0.01364 0.0409673 -0.004
      vertex -0.00556 0.0409673 -0.004
    endloop
  endfacet
  facet normal 0 -0 1
    outer loop
      vertex -0.0096 0.0339698 -0.004
      vertex -0.00152 0.0339698 -0.004
      vertex -0.00556 0.0409673 -0.004
    endloop
  endfacet
  facet normal 0 0 1
    outer loop
      vertex -0.00152 0.0479648 -0.004
      vertex -0.0096 0.0479648 -0.004
      vertex -0.00556 0.0409673 -0.004
    endloop
  endfacet
  facet normal 0 -0 1
    outer loop
      vertex -0.00152 0.0339698 -0.004
      vertex 0.00252 0.0409673 -0.004
      vertex -0.00556 0.0409673 -0.004
    endloop
  endfacet
  facet normal -0 0 1
    outer loop
      vertex -0.00152 0.0479648 -0.004
      vertex -0.00556 0.0409673 -0.004
      vertex 0.00252 0.0409673 -0.004
    endloop
  endfacet
  facet normal 0 -0 1
    outer loop
      vertex -0.00152 0.0339698 -0.004
      vertex 0.00656 0.0339698 -0.004
      vertex 0.00252 0.0409673 -0.004
    endloop
  endfacet
  facet normal 0 0 1
    outer loop
      vertex 0.00656 0.0479648 -0.004
      vertex -0.00152 0.0479648 -0.004
      vertex 0.00252 0.0409673 -0.004
    endloop
  endfacet
  facet normal 0 -0 1
    outer loop
      vertex 0.00656 0.0339698 -0.004
      vertex 0.0106 0.0409673 -0.004
      vertex 0.00252 0.0409673 -0.004
    endloop
  endfacet
  facet normal -0 0 1
    outer loop
      vertex 0.00656 0.0479648 -0.004
      vertex 0.00252 0.0409673 -0.004
      vertex 0.0106 0.0409673 -0.004
    endloop
  endfacet
  facet normal 0 -0 1
    outer loop
      vertex 0.00656 0.0339698 -0.004
      vertex 0.01464 0.0339698 -0.004
      vertex 0.0106 0.0409673 -0.004
    endloop
  endfacet
  facet normal 0 0 1
    outer loop
      vertex 0.01464 0.0479648 -0.004
      vertex 0.00656 0.0479648 -0.004
      vertex 0.0106 0.0409673 -0.004
    endloop
  endfacet
  facet normal 0 -0 1
    outer loop
      vertex 0.01464 0.0339698 -0.004
      vertex 0.01868 0.0409673 -0.004
      vertex 0.0106 0.0409673 -0.004
    endloop
  endfacet
  facet normal -0 0 1
    outer loop
      vertex 0.01464 0.0479648 -0.004
      vertex 0.0106 0.0409673 -0.004
      vertex 0.01868 0.0409673 -0.004
    endloop
  endfacet
  facet normal 0 -0 1
    outer loop
      vertex 0.01464 0.0339698 -0.004
      vertex 0.02272 0.0339698 -0.004
      vertex 0.01868 0.0409673 -0.004
    endloop
  endfacet
  facet normal 0 0 1
    outer loop
      vertex 0.02272 0.0479648 -0.004
      vertex 0.01464 0.0479648 -0.004
      vertex 0.01868 0.0409673 -0.004
    endloop
  endfacet
  facet normal 0 -0 1
    outer loop
      vertex 0.02272 0.0339698 -0.004
      vertex 0.02676 0.0409673 -0.004
      vertex 0.01868 0.0409673 -0.004
    endloop
  endfacet
  facet normal -0 0 1
    outer loop
      vertex 0.02272 0.0479648 -0.004
      vertex 0.01868 0.0409673 -0.004
      vertex 0.02676 0.0409673 -0.004
    endloop
  endfacet
  facet normal 0 -0 1
    outer loop
      vertex 0.02272 0.0339698 -0.004
      vertex 0.0308 0.0339698 -0.004
      vertex 0.02676 0.0409673 -0.004
    endloop
  endfacet
  facet normal 0 0 1
    outer loop
      vertex 0.0308 0.0479648 -0.004
      vertex 0.02272 0.0479648 -0.004
      vertex 0.02676 0.0409673 -0.004
    endloop
  endfacet
  facet normal 0 -0 1
    outer loop
      vertex 0.0308 0.0339698 -0.004
      vertex 0.03484 0.0409673 -0.004
      vertex 0.02676 0.0409673 -0.004
    endloop
  endfacet
  facet normal -0 0 1
    outer loop
      vertex 0.0308 0.0479648 -0.004
      vertex 0.02676 0.0409673 -0.004
      vertex 0.03484 0.0409673 -0.004
    endloop
  endfacet
  facet normal 0 -0 1
    outer loop
      vertex 0.0308 0.0339698 -0.004
      vertex 0.03888 0.0339698 -0.004
      vertex 0.03484 0.0409673 -0.004
    endloop
  endfacet
  facet normal 0 0 1
    outer loop
      vertex 0.03888 0.0479648 -0.004
      vertex 0.0308 0.0479648 -0.004
      vertex 0.03484 0.0409673 -0.004
    endloop
  endfacet
  facet normal 0 -0 1
    outer loop
      vertex 0.03888 0.0339698 -0.004
      vertex 0.04292 0.0409673 -0.004
      vertex 0.03484 0.0409673 -0.004
    endloop
  endfacet
  facet normal -0 0 1
    outer loop
      vertex 0.03888 0.0479648 -0.004
      vertex 0.03484 0.0409673 -0.004
      vertex 0.04292 0.0409673 -0.004
    endloop
  endfacet
  facet normal 0 -0 1
    outer loop
      vertex 0.03888 0.0339698 -0.004
      vertex 0.04696 0.0339698 -0.004
      vertex 0.04292 0.0409673 -0.004
    endloop
  endfacet
  facet normal 0 0 1
    outer loop
      vertex 0.04696 0.0479648 -0.004
      vertex 0.03888 0.0479648 -0.004
      vertex 0.04292 0.0409673 -0.004
    endloop
  endfacet
  facet normal 0 -0 1
    outer loop
      vertex 0.04696 0.0339698 -0.004
      vertex 0.051 0.0409673 -0.004
      vertex 0.04292 0.0409673 -0.004
    endloop
  endfacet
  facet normal -0 0 1
    outer loop
      vertex 0.04696 0.0479648 -0.004
      vertex 0.04292 0.0409673 -0.004
      vertex 0.051 0.0409673 -0.004
    endloop
  endfacet
  facet normal 0 -0 1
    outer loop
      vertex 0.04696 0.0339698 -0.004
      vertex 0.05504 0.0339698 -0.004
      vertex 0.051 0.0409673 -0.004
    endloop
  endfacet
  facet normal 0 0 1
    outer loop
      vertex 0.05504 0.0479648 -0.004
      vertex 0.04696 0.0479648 -0.004
      vertex 0.051 0.0409673 -0.004
    endloop
  endfacet
  facet normal 0 -0 1
    outer loop
      vertex 0.05504 0.0339698 -0.004
      vertex 0.05908 0.0409673 -0.004
      vertex 0.051 0.0409673 -0.004
    endloop
  endfacet
  facet normal -0 0 1
    outer loop
      vertex 0.05504 0.0479648 -0.004
      vertex 0.051 0.0409673 -0.004
      vertex 0.05908 0.0409673 -0.004
    endloop
  endfacet
  facet normal 0 -0 1
    outer loop
      vertex 0.05504 0.0339698 -0.004
      vertex 0.06312 0.0339698 -0.004
      vertex 0.05908 0.0409673 -0.004
    endloop
  endfacet
  facet normal 0 0 1
    outer loop
      vertex 0.06312 0.0479648 -0.004
      vertex 0.05504 0.0479648 -0.004
      vertex 0.05908 0.0409673 -0.004
    endloop
  endfacet
  facet normal 0 -0 1
    outer loop
      vertex 0.06312 0.0339698 -0.004
      vertex 0.06716 0.0409673 -0.004
      vertex 0.05908 0.0409673 -0.004
    endloop
  endfacet
  facet normal -0 0 1
    outer loop
      vertex 0.06312 0.0479648 -0.004
      vertex 0.05908 0.0409673 -0.004
      vertex 0.06716 0.0409673 -0.004
    endloop
  endfacet
endsolid Membrane
