solid Membrane
  facet normal 0 -0 1
    outer loop
      vertex -0.03 -0.0519615 0
      vertex -0.01 -0.0519615 0
      vertex -0.02 -0.034641 0
    endloop
  endfacet
  facet normal 0 -0 1
    outer loop
      vertex -0.01 -0.0519615 0
      vertex 0 -0.034641 0
      vertex -0.02 -0.034641 0
    endloop
  endfacet
  facet normal 0 -0 1
    outer loop
      vertex -0.01 -0.0519615 0
      vertex 0.01 -0.0519615 0
      vertex 0 -0.034641 0
    endloop
  endfacet
  facet normal 0 -0 1
    outer loop
      vertex 0.01 -0.0519615 0
      vertex 0.02 -0.034641 0
      vertex 0 -0.034641 0
    endloop
  endfacet
  facet normal 0 -0 1
    outer loop
      vertex 0.01 -0.0519615 0
      vertex 0.03 -0.0519615 0
      vertex 0.02 -0.034641 0
    endloop
  endfacet
  facet normal 0 -0 1
    outer loop
      vertex 0.03 -0.0519615 0
      vertex 0.04 -0.034641 0
      vertex 0.02 -0.034641 0
    endloop
  endfacet
  facet normal 0 0 1
    outer loop
      vertex -0.01 -0.0173205 0
      vertex -0.03 -0.0173205 0
      vertex -0.02 -0.034641 0
    endloop
  endfacet
  facet normal -0 0 1
    outer loop
      vertex -0.01 -0.0173205 0
      vertex -0.02 -0.034641 0
      vertex 0 -0.034641 0
    endloop
  endfacet
  facet normal 0 0 1
    outer loop
      vertex 0.01 -0.0173205 0
      vertex -0.01 -0.0173205 0
      vertex 0 -0.034641 0
    endloop
  endfacet
  facet normal -0 0 1
    outer loop
      vertex 0.01 -0.0173205 0
      vertex 0 -0.034641 0
      vertex 0.02 -0.034641 0
    endloop
  endfacet
  facet normal 0 0 1
    outer loop
      vertex 0.03 -0.0173205 0
      vertex 0.01 -0.0173205 0
      vertex 0.02 -0.034641 0
    endloop
  endfacet
  facet normal -0 0 1
    outer loop
      vertex 0.03 -0.0173205 0
      vertex 0.02 -0.034641 0
      vertex 0.04 -0.034641 0
    endloop
  endfacet
  facet normal 0 -0 1
    outer loop
      vertex -0.03 -0.0173205 0
      vertex -0.01 -0.0173205 0
      vertex -0.02 0 0
    endloop
  endfacet
  facet normal 0 -0 1
    outer loop
      vertex -0.01 -0.0173205 0
      vertex 0 0 0
      vertex -0.02 0 0
    endloop
  endfacet
  facet normal 0 -0 1
    outer loop
      vertex -0.01 -0.0173205 0
      vertex 0.01 -0.0173205 0
      vertex 0 0 0
    endloop
  endfacet
  facet normal 0 -0 1
    outer loop
      vertex 0.01 -0.0173205 0
      vertex 0.02 0 0
      vertex 0 0 0
    endloop
  endfacet
  facet normal 0 -0 1
    outer loop
      vertex 0.01 -0.0173205 0
      vertex 0.03 -0.0173205 0
      vertex 0.02 0 0
    endloop
  endfacet
  facet normal 0 -0 1
    outer loop
      vertex 0.03 -0.0173205 0
      vertex 0.04 0 0
      vertex 0.02 0 0
    endloop
  endfacet
  facet normal 0 0 1
    outer loop
      vertex -0.01 0.0173205 0
      vertex -0.03 0.0173205 0
      vertex -0.02 0 0
    endloop
  endfacet
  facet normal -0 0 1
    outer loop
      vertex -0.01 0.0173205 0
      vertex -0.02 0 0
      vertex 0 0 0
    endloop
  endfacet
  facet normal 0 0 1
    outer loop
      vertex 0.01 0.0173205 0
      vertex -0.01 0.0173205 0
      vertex 0 0 0
    endloop
  endfacet
  facet normal -0 0 1
    outer loop
      vertex 0.01 0.0173205 0
      vertex 0 0 0
      vertex 0.02 0 0
    endloop
  endfacet
  facet normal 0 0 1
    outer loop
      vertex 0.03 0.0173205 0
      vertex 0.01 0.0173205 0
      vertex 0.02 0 0
    endloop
  endfacet
  facet normal -0 0 1
    outer loop
      vertex 0.03 0.0173205 0
      vertex 0.02 0 0
      vertex 0.04 0 0
    endloop
  endfacet
  facet normal 0 -0 1
    outer loop
      vertex -0.03 0.0173205 0
      vertex -0.01 0.0173205 0
      vertex -0.02 0.034641 0
    endloop
  endfacet
  facet normal 0 -0 1
    outer loop
      vertex -0.01 0.0173205 0
      vertex 0 0.034641 0
      vertex -0.02 0.034641 0
    endloop
  endfacet
  facet normal 0 -0 1
    outer loop
      vertex -0.01 0.0173205 0
      vertex 0.01 0.0173205 0
      vertex 0 0.034641 0
    endloop
  endfacet
  facet normal 0 -0 1
    outer loop
      vertex 0.01 0.0173205 0
      vertex 0.02 0.034641 0
      vertex 0 0.034641 0
    endloop
  endfacet
  facet normal 0 -0 1
    outer loop
      vertex 0.01 0.0173205 0
      vertex 0.03 0.0173205 0
      vertex 0.02 0.034641 0
    endloop
  endfacet
  facet normal 0 -0 1
    outer loop
      vertex 0.03 0.0173205 0
      vertex 0.04 0.034641 0
      vertex 0.02 0.034641 0
    endloop
  endfacet
  facet normal 0 0 1
    outer loop
      vertex -0.01 0.0519615 0
      vertex -0.03 0.0519615 0
      vertex -0.02 0.034641 0
    endloop
  endfacet
  facet normal -0 0 1
    outer loop
      vertex -0.01 0.0519615 0
      vertex -0.02 0.034641 0
      vertex 0 0.034641 0
    endloop
  endfacet
  facet normal 0 0 1
    outer loop
      vertex 0.01 0.0519615 0
      vertex -0.01 0.0519615 0
      vertex 0 0.034641 0
    endloop
  endfacet
  facet normal -0 0 1
    outer loop
      vertex 0.01 0.0519615 0
      vertex 0 0.034641 0
      vertex 0.02 0.034641 0
    endloop
  endfacet
  facet normal 0 0 1
    outer loop
      vertex 0.03 0.0519615 0
      vertex 0.01 0.0519615 0
      vertex 0.02 0.034641 0
    endloop
  endfacet
  facet normal -0 0 1
    outer loop
      vertex 0.03 0.0519615 0
      vertex 0.02 0.034641 0
      vertex 0.04 0.034641 0
    endloop
  endfacet
endsolid Membrane
